PathFileType	4	(X/Y/Z)	Patient4_TMGait_0pt4_01_left_10.trc.trc
DataRate	CameraRate	NumFrames	NumMarkers	Units	OrigDataRate	OrigDataStartFrame	OrigNumFrames
74.074074074074	74.074074074074	6	33	mm	74.074074074074	124	       141
Frame#	Time	Sacral			L.Shoulder			Chest			R.Shoulder			Neck			R.ASIS			L.ASIS			R.Thigh.Superior			R.Thigh.Lateral			R.Thigh.Inferior			R.Patella			L.Thigh.Superior			L.Thigh.Lateral			L.Thigh.Inferior			L.Patella			L.Shank.Superior			L.Shank.Lateral			L.Shank.Inferior			R.Shank.Superior			R.Shank.Lateral			R.Shank.Inferior			R.Heel			R.Midfoot.Superior			R.Midfoot.Lateral			R.Toe			L.Heel			L.Midfoot.Lateral			L.Midfoot.Superior			L.Toe			L.Elbow			L.Wrist			R.Elbow			R.Wrist			
		X1	Y1	Z1	X2	Y2	Z2	X3	Y3	Z3	X4	Y4	Z4	X5	Y5	Z5	X6	Y6	Z6	X7	Y7	Z7	X8	Y8	Z8	X9	Y9	Z9	X10	Y10	Z10	X11	Y11	Z11	X12	Y12	Z12	X13	Y13	Z13	X14	Y14	Z14	X15	Y15	Z15	X16	Y16	Z16	X17	Y17	Z17	X18	Y18	Z18	X19	Y19	Z19	X20	Y20	Z20	X21	Y21	Z21	X22	Y22	Z22	X23	Y23	Z23	X24	Y24	Z24	X25	Y25	Z25	X26	Y26	Z26	X27	Y27	Z27	X28	Y28	Z28	X29	Y29	Z29	X30	Y30	Z30	X31	Y31	Z31	X32	Y32	Z32	X33	Y33	Z33	

124	13.640500000000	795.306654827203	999.040895860221	533.178270962151	937.105317053915	1431.445612216777	338.149837041150	1063.698595331030	1363.849560979967	481.091466367991	1007.137115343087	1433.237719612778	667.325724031141	945.201431989351	1491.740128316306	494.517112813135	1035.914939554937	938.106685219434	625.708428085614	993.688929841171	958.525372008247	352.050347027332	1036.809670980717	726.515894792549	599.130613298166	936.792615196326	629.810927934856	664.976186198069	995.669214823199	566.134609325904	583.147049685493	977.691155608589	481.335937195932	588.614989630589	1071.181858259720	769.626196039305	379.906889329140	1011.054978575402	636.397989149556	317.896368251890	1117.132026810109	578.673878882109	373.328161093618	1136.187539841149	509.437117291251	375.682382953604	1114.997932668603	434.765412784355	369.993778529964	1034.801737894085	309.945580711048	328.254951695612	1112.651154915503	205.628927765491	386.000861005424	940.139971591513	396.052165159431	596.592462657971	858.399092667563	300.558272499676	660.095253514391	888.648633388260	202.200574951647	594.900684014930	741.520629949519	42.167644580564	565.064659995094	913.620948839021	96.572819956657	598.635287656848	825.880148858267	35.856010648907	638.378085762673	1033.865730687787	44.065125132260	622.949666640024	1012.876614406301	38.633296249672	434.456072468760	1081.373675204149	37.890730525414	349.648301513307	1161.294270592788	105.330405179013	367.730634230633	1289.525567339528	61.806098551483	332.207966463455	826.248963758101	1089.037991633715	256.763323893719	833.066636309149	827.936567707145	251.892841158031	1109.454570366241	1102.126957629685	782.719541023953	1353.188991035045	1044.972799421945	731.367976906678	
125	13.654000000000	797.077589352151	997.952412127880	530.607038462093	937.499408991178	1430.156186005438	334.913641457354	1063.915814212164	1363.583015179252	478.510480595204	1006.257371357789	1433.062290892183	664.401322878202	944.772212741332	1490.951061700004	491.166160553114	1037.523318388966	937.295110588851	623.915786125473	996.162034096508	957.488396580517	350.292887958024	1038.176674565500	725.211133553993	597.455189202408	937.669483777947	628.714683647086	663.022925150602	996.298872154658	564.740313599432	581.112629594402	977.854840294434	479.338665386984	586.458515730380	1073.396935229822	767.526352641702	379.648588356310	1012.250533267412	635.091464662686	317.620813157114	1117.259441499368	576.645147130847	374.288240335602	1134.677320741289	506.784977922052	377.353864792993	1113.128911501909	432.083684177920	371.096589122682	1032.032931650849	308.092552190264	328.475472608654	1107.615812429870	203.049542156743	387.707131738894	939.091140403708	394.542262038190	594.756459923841	856.338081310030	300.231050559236	658.901345422658	884.887095517003	201.366449871168	593.897877532263	736.035970299063	42.101168825003	565.000387867520	908.201770290588	96.438708179692	598.344802801132	820.434658222064	35.753556970559	638.241375694195	1028.503807218458	43.719479274399	623.021886837144	1004.597266349451	38.167688722992	435.769074001939	1073.176161664116	36.860476162530	350.912425949065	1154.508629293552	102.279223831803	369.916815667349	1282.206165739457	56.412915835969	334.122577177630	830.324446279548	1086.626559769144	252.271509336851	841.355010915580	825.710208977453	245.638063004373	1105.836488334295	1101.280312223233	781.408683776433	1347.863331388197	1037.611620080352	728.873771400756	
126	13.667500000000	798.827818956120	996.985657687910	528.027995952329	938.040473091895	1428.915017324516	331.553647744388	1064.218634628814	1363.397170963940	475.870823627872	1005.435561742563	1433.070656320240	661.367244281160	944.430686560691	1490.276423136658	487.679149479337	1039.080222334593	936.552871604408	622.018399277802	998.569315546452	956.661216570300	348.499185486116	1039.799072918118	723.994247913114	595.533977486385	939.076119954145	627.524121575579	660.870237541046	997.540369889527	563.368028375815	578.811404946316	978.802403541225	477.125824774432	584.176610802582	1075.545733860578	765.719675528589	379.410263077571	1013.696500090978	634.232538036593	316.896708122604	1117.446995873634	574.991248610790	375.000474132366	1133.362203740839	504.623848478058	378.612082774520	1111.573885785431	429.878151476649	371.776726926830	1029.873315512170	306.631737732212	327.967161904468	1103.146362639782	200.964165229023	388.840537862583	938.573851751529	392.937008443946	592.783501460436	854.631843875950	300.000940731267	657.575694754916	881.343318295831	200.574020009452	592.832399284143	730.550238256623	42.249353320251	564.928751679666	902.881613436530	96.325169426110	598.045895952376	815.015326808469	35.716769927022	638.070300986888	1023.190319380206	43.278293055324	623.101991894932	997.103821574602	37.829464606864	436.406231114616	1065.847930217454	36.149081036933	351.578673572877	1148.244564534523	99.962715045810	371.497216700946	1275.578474054962	52.311552946327	335.609960360660	835.047273387049	1084.160714452551	247.545495172262	850.394666201335	823.496988436015	239.179287744271	1101.705310670721	1100.514474737962	780.144024242975	1341.653665764565	1029.589492941175	726.425624163367	
127	13.681000000000	800.503492877463	996.192098037448	525.458753879713	938.711883213964	1427.776691696995	328.122947605416	1064.607343970615	1363.310716206648	473.193824210855	1004.725584445200	1433.297007715130	658.252500666643	944.196044769300	1489.756592743720	484.108145412404	1040.518384055552	935.929171333902	620.006657194716	1000.826867257964	956.095718574636	346.641457655473	1041.638178124854	722.943180138320	593.365710278055	941.027982159809	626.290607451353	658.542297321424	999.468893860635	562.073405443052	576.302523279614	980.655859967763	474.737768474272	581.890701659709	1077.567576196408	764.308088649826	379.016013970486	1015.246971437955	633.803823933773	315.745396833422	1117.631730829821	573.729093113896	375.299644847094	1132.209474375845	502.975509601074	379.336643616031	1110.272773776630	428.156905397579	372.004568427671	1028.188686419898	305.567060392240	326.868481901594	1099.188915320419	199.385632090208	389.443284621604	938.679383446150	391.292357352491	590.763678117082	853.319509876467	299.965220373817	656.153907008395	878.078924994069	199.909690869254	591.764207951940	725.095180680847	42.775550542074	564.862494869888	897.723582182141	96.261069236729	597.773130572929	809.642945432805	35.828005926915	637.874427509655	1017.930951677766	42.737811529643	623.188765892379	990.426593991269	37.610969087218	436.531643441786	1059.364871778992	35.722551679109	351.768407008839	1142.482329606873	98.377936935704	372.503025382578	1269.603099466812	49.503790472934	336.634571574085	840.438994641764	1081.711511495337	242.634585116432	860.161498152861	821.376553285303	232.584168847291	1097.066131723559	1099.867429521241	778.888232575736	1334.508962703035	1020.964692677203	724.044313194074	
128	13.694500000000	802.058655832268	995.604197517033	522.893454723821	939.490940225541	1426.786421298788	324.670049505474	1065.073927037124	1363.336498120752	470.500551290898	1004.157397020041	1433.754775838234	655.087436868524	944.076323349962	1489.418484674415	480.503271040581	1041.778253697089	935.465837616183	617.879193054113	1002.881592749486	955.818138602591	344.694101871899	1043.668075562138	722.134843394568	590.982108508818	943.533422933984	625.075735385497	656.081833213217	1002.161328366027	560.916581550651	573.674878832862	983.530234449135	472.238614048785	579.738589975356	1079.417474659817	763.324723620813	378.280399815616	1016.701429483127	633.726018502742	314.234207740834	1117.714687652303	572.808431970620	375.067600795480	1131.131835848030	501.789748792580	379.478348674053	1109.099986354947	426.869764947232	371.800394126531	1026.760316926516	304.856055594359	325.372326649439	1095.604030640152	198.266936565105	389.602676913673	939.511707988515	389.676608518503	588.800884109137	852.464019202581	300.231116660790	654.685058356700	875.175275593882	199.474789097233	590.761345367491	719.724382766575	43.879957023316	564.818143142577	892.802900430445	96.283373298214	597.565026251470	804.348134519982	36.198758647238	637.669102395090	1012.727052139879	42.103798549537	623.279815468369	984.470422163861	37.492124127935	436.315395107496	1053.591018743733	35.522914632039	351.619097455968	1137.127125015708	97.439458451373	373.018861735893	1264.156003105490	47.844072453539	337.224232386973	846.496786427880	1079.349822948131	237.586071940599	870.646974876662	819.430326366238	225.914371810297	1091.921368631635	1099.363730244158	777.599979052377	1326.369153280494	1011.798410097942	721.762828489068	
129	13.708000000000	803.455153293778	995.235814144699	520.305963981112	940.356387336647	1425.976916000593	321.232038162582	1065.602782751715	1363.481904529147	467.811065988342	1003.730172757118	1434.435643219099	651.900766178321	944.070366871221	1489.274635254066	476.905623918654	1042.811934308134	935.191986183224	615.644837644284	1004.711186155454	955.828962431809	342.642091062612	1045.887462395379	721.639342691510	588.443662740867	946.604074218848	623.945963713977	653.544481400171	1005.698087207185	559.960655061729	571.033768118357	987.528700994688	469.715023001588	577.849679360148	1081.061860541742	762.729943626344	377.038937965399	1017.825957803479	633.877506799201	312.464303705699	1117.571620245363	572.133111836590	374.254253814899	1130.001998748671	500.972182827856	379.064025375680	1107.890124605694	425.932594454073	371.225082758624	1025.335944337084	304.426885833877	323.687895234635	1092.210008175860	197.523993114745	389.431258329251	941.187406847959	388.166600668666	586.996081269494	852.160377502321	300.908882603416	653.224848642471	872.735219951157	199.380597120819	589.890602823293	714.517826186887	45.791570304537	564.814639595100	888.204469576505	96.437378709168	597.458551928595	799.174041022993	36.968544119856	637.473804795025	1007.574743837270	41.391960273137	623.371079464734	979.064842854217	37.446342490665	435.911459864936	1048.330595063407	35.483016453272	351.264209676889	1132.045960373738	97.012038633493	373.160670414665	1259.071288540536	47.097925369608	337.451805449817	853.193753180053	1077.142279117336	232.443106700168	881.856492303925	817.739805710178	219.225382764154	1086.269948804079	1099.012538957962	776.234181991856	1317.163069331721	1002.150583468401	719.627921546394	
